<?xml version="1.0" encoding="iso-8859-1"?>
<!-- Generator: Adobe Illustrator 19.0.0, SVG Export Plug-In . SVG Version: 6.00 Build 0)  -->
<svg version="1.1" id="Layer_1" xmlns="http://www.w3.org/2000/svg" xmlns:xlink="http://www.w3.org/1999/xlink" x="0px" y="0px"
	 viewBox="0 0 512 512" style="enable-background:new 0 0 512 512;" xml:space="preserve">
<rect x="21.852" y="116.857" style="fill:#6BAC2E;" width="245.003" height="203.487"/>
<rect x="144.351" y="116.857" style="fill:#518022;" width="122.502" height="203.487"/>
<rect x="245.148" y="308.134" style="fill:#79D5DE;" width="244.992" height="203.487"/>
<rect x="367.649" y="308.134" style="fill:#3D6C6F;" width="122.502" height="203.487"/>
<rect x="223.299" y="271.871" style="fill:#D7F6F8;" width="288.701" height="72.515"/>
<rect x="367.649" y="271.871" style="fill:#79D5DE;" width="144.351" height="72.515"/>
<path style="fill:#B90B27;" d="M287.428,231.766c0-22.153,17.958-40.111,40.111-40.111s40.111,17.958,40.111,40.111
	c0,11.076,0,40.111,0,40.111s-29.035,0-40.111,0C305.386,271.876,287.428,253.917,287.428,231.766z"/>
<path style="fill:#8A091F;" d="M442.264,252.23c3.561-5.992,5.606-12.989,5.606-20.464c0-22.153-17.958-40.111-40.111-40.111
	s-40.111,17.958-40.111,40.111c0,11.076,0,40.111,0,40.111s29.035,0,40.111,0C422.437,271.876,435.272,263.993,442.264,252.23"/>
<rect y="80.605" style="fill:#A7DC5E;" width="288.701" height="72.515"/>
<rect x="144.351" y="80.605" style="fill:#6BAC2E;" width="144.351" height="72.515"/>
<path style="fill:#F4DA49;" d="M64.13,40.49c0-22.153,17.958-40.111,40.111-40.111s40.111,17.958,40.111,40.111
	c0,11.076,0,40.111,0,40.111s-29.035,0-40.111,0C82.088,80.601,64.13,62.643,64.13,40.49z"/>
<path style="fill:#E69824;" d="M224.573,40.49c0-22.153-17.958-40.111-40.111-40.111s-40.111,17.958-40.111,40.111
	c0,11.076,0,40.111,0,40.111s29.035,0,40.111,0C206.614,80.601,224.573,62.643,224.573,40.49z"/>
<g>
</g>
<g>
</g>
<g>
</g>
<g>
</g>
<g>
</g>
<g>
</g>
<g>
</g>
<g>
</g>
<g>
</g>
<g>
</g>
<g>
</g>
<g>
</g>
<g>
</g>
<g>
</g>
<g>
</g>
</svg>
